<svg width="35" height="40" viewBox="0 0 35 40" fill="none" xmlns="http://www.w3.org/2000/svg">
<path d="M1.28032 32.0741H34.3484C34.5032 32.0741 34.6287 31.9139 34.6287 31.7163V27.9598C34.6287 27.7622 34.5032 27.602 34.3484 27.602H1.28032C1.12555 27.602 1.00008 27.7622 1.00008 27.9598V31.7163C1.00008 31.9139 1.12555 32.0741 1.28032 32.0741Z" fill="#CEE7EF" stroke="#808080" stroke-width="0.304577"/>
<path d="M33.3081 23H20.3783C20.2264 23 20.1033 23.1231 20.1033 23.2751V36.2048C20.1033 36.3567 20.2264 36.4799 20.3783 36.4799H33.3081C33.46 36.4799 33.5831 36.3567 33.5831 36.2048V23.2751C33.5831 23.1231 33.46 23 33.3081 23Z" fill="#CEE7EF" stroke="#CEE7EF" stroke-width="2" stroke-linecap="round"/>
<path d="M24.9207 36.725L24.9317 38.025L25.8542 38.675L26.3155 39H26.7662H27.252L27.7272 38.675L28.6777 38.025L28.6962 36.725H24.9207Z" fill="#CEE7EF" stroke="#CEE7EF" stroke-width="1.04298"/>
<path d="M26.8435 34.5957C29.5252 34.5957 31.6992 32.4217 31.6992 29.7399C31.6992 27.0582 29.5252 24.8842 26.8435 24.8842C24.1618 24.8842 21.9878 27.0582 21.9878 29.7399C21.9878 32.4217 24.1618 34.5957 26.8435 34.5957Z" fill="#4B6269"/>
<path d="M14.7004 23H1.77067C1.61875 23 1.49561 23.1231 1.49561 23.2751V36.2048C1.49561 36.3567 1.61875 36.4799 1.77067 36.4799H14.7004C14.8523 36.4799 14.9755 36.3567 14.9755 36.2048V23.2751C14.9755 23.1231 14.8523 23 14.7004 23Z" fill="#CEE7EF" stroke="#CEE7EF" stroke-width="2" stroke-linecap="round"/>
<path d="M6.31299 36.725L6.32407 38.025L7.24658 38.675L7.70783 39H8.15853H8.64433L9.11957 38.675L10.0701 38.025L10.0885 36.725H6.31299Z" fill="#CEE7EF" stroke="#CEE7EF" stroke-width="1.04298"/>
<path d="M8.23584 34.5957C10.9176 34.5957 13.0916 32.4217 13.0916 29.7399C13.0916 27.0582 10.9176 24.8842 8.23584 24.8842C5.55411 24.8842 3.38013 27.0582 3.38013 29.7399C3.38013 32.4217 5.55411 34.5957 8.23584 34.5957Z" fill="#4B6269"/>
<path d="M1.28032 10.0741H34.3484C34.5032 10.0741 34.6287 9.91391 34.6287 9.71633V5.9598C34.6287 5.76221 34.5032 5.60203 34.3484 5.60203H1.28032C1.12555 5.60203 1.00008 5.76221 1.00008 5.9598V9.71633C1.00008 9.91391 1.12555 10.0741 1.28032 10.0741Z" fill="#CEE7EF" stroke="#4B6269" stroke-width="0.304577"/>
<path d="M33.3081 1H20.3783C20.2264 1 20.1033 1.12315 20.1033 1.27506V14.2048C20.1033 14.3567 20.2264 14.4799 20.3783 14.4799H33.3081C33.46 14.4799 33.5831 14.3567 33.5831 14.2048V1.27506C33.5831 1.12315 33.46 1 33.3081 1Z" fill="#CEE7EF" stroke="#CEE7EF" stroke-width="2" stroke-linecap="round"/>
<path d="M24.9207 14.725L24.9317 16.025L25.8542 16.675L26.3155 17H26.7662H27.252L27.7272 16.675L28.6777 16.025L28.6962 14.725H24.9207Z" fill="#CEE7EF" stroke="#CEE7EF" stroke-width="1.04298"/>
<path d="M27.2461 11.4936L24.0369 8.30949C23.8865 8.13399 23.8113 7.93342 23.8113 7.70777C23.8113 7.45706 23.8865 7.28156 24.0369 7.13113L27.2461 3.94705C27.4717 3.72141 27.8227 3.64619 28.1236 3.77155C28.4244 3.89691 28.625 4.19777 28.625 4.49862V10.9169C28.625 11.2429 28.4244 11.5186 28.1236 11.644C27.8227 11.7694 27.4717 11.7192 27.2461 11.4936Z" fill="#4B6269"/>
<path d="M14.7004 1H1.77067C1.61875 1 1.49561 1.12315 1.49561 1.27506V14.2048C1.49561 14.3567 1.61875 14.4799 1.77067 14.4799H14.7004C14.8523 14.4799 14.9755 14.3567 14.9755 14.2048V1.27506C14.9755 1.12315 14.8523 1 14.7004 1Z" fill="#CEE7EF" stroke="#CEE7EF" stroke-width="2" stroke-linecap="round"/>
<path d="M6.31299 14.725L6.32407 16.025L7.24658 16.675L7.70783 17H8.15853H8.64433L9.11957 16.675L10.0701 16.025L10.0885 14.725H6.31299Z" fill="#CEE7EF" stroke="#CEE7EF" stroke-width="1.04298"/>
<path d="M7.49321 3.89669L10.7152 7.09349C10.8662 7.26969 10.9669 7.47107 10.9669 7.67244C10.9669 7.84864 10.8662 8.07519 10.7152 8.22622L7.49321 11.423C7.26666 11.6496 6.91426 11.7251 6.6122 11.5992C6.31014 11.4734 6.13394 11.2216 6.13394 10.8944V4.45046C6.13394 4.1484 6.31014 3.84634 6.6122 3.72049C6.91426 3.59463 7.26666 3.67014 7.49321 3.89669Z" fill="#4B6269"/>
</svg>
