<?xml version="1.0" encoding="UTF-8" standalone="no"?>
<svg
   width="480"
   height="272"
   viewBox="0 0 480 272"
   fill="none"
   version="1.1"
   id="svg37"
   sodipodi:docname="Extruders3.svg"
   xmlns:inkscape="http://www.inkscape.org/namespaces/inkscape"
   xmlns:sodipodi="http://sodipodi.sourceforge.net/DTD/sodipodi-0.dtd"
   xmlns="http://www.w3.org/2000/svg"
   xmlns:svg="http://www.w3.org/2000/svg">
  <defs
     id="defs41" />
  <sodipodi:namedview
     id="namedview39"
     pagecolor="#ffffff"
     bordercolor="#666666"
     borderopacity="1.0"
     inkscape:pageshadow="2"
     inkscape:pageopacity="0.0"
     inkscape:pagecheckerboard="true"
     showgrid="false"
     showguides="false" />
  <path
     d="M 1.28032,32.0741 H 34.3484 c 0.1548,0 0.2803,-0.1602 0.2803,-0.3578 v -3.7565 c 0,-0.1976 -0.1255,-0.3578 -0.2803,-0.3578 H 1.28032 c -0.15477,0 -0.28024,0.1602 -0.28024,0.3578 v 3.7565 c 0,0.1976 0.12547,0.3578 0.28024,0.3578 z"
     fill="#cee7ef"
     stroke="#808080"
     stroke-width="0.304577"
     id="path9" />
  <path
     d="M 33.3081,23 H 20.3783 c -0.1519,0 -0.275,0.1231 -0.275,0.2751 v 12.9297 c 0,0.1519 0.1231,0.2751 0.275,0.2751 h 12.9298 c 0.1519,0 0.275,-0.1232 0.275,-0.2751 V 23.2751 C 33.5831,23.1231 33.46,23 33.3081,23 Z"
     fill="#cee7ef"
     stroke="#cee7ef"
     stroke-width="2"
     stroke-linecap="round"
     id="path11" />
  <path
     d="m 24.9207,36.725 0.011,1.3 0.9225,0.65 0.4613,0.325 h 0.4507 0.4858 l 0.4752,-0.325 0.9505,-0.65 0.0185,-1.3 z"
     fill="#cee7ef"
     stroke="#cee7ef"
     stroke-width="1.04298"
     id="path13" />
  <path
     d="m 26.8435,34.5957 c 2.6817,0 4.8557,-2.174 4.8557,-4.8558 0,-2.6817 -2.174,-4.8557 -4.8557,-4.8557 -2.6817,0 -4.8557,2.174 -4.8557,4.8557 0,2.6818 2.174,4.8558 4.8557,4.8558 z"
     fill="#4b6269"
     id="path15" />
  <path
     d="M 14.7004,23 H 1.77067 c -0.15192,0 -0.27506,0.1231 -0.27506,0.2751 v 12.9297 c 0,0.1519 0.12314,0.2751 0.27506,0.2751 H 14.7004 c 0.1519,0 0.2751,-0.1232 0.2751,-0.2751 V 23.2751 C 14.9755,23.1231 14.8523,23 14.7004,23 Z"
     fill="#cee7ef"
     stroke="#cee7ef"
     stroke-width="2"
     stroke-linecap="round"
     id="path17" />
  <path
     d="m 6.31299,36.725 0.01108,1.3 0.92251,0.65 L 7.70783,39 h 0.4507 0.4858 l 0.47524,-0.325 0.95053,-0.65 0.0184,-1.3 z"
     fill="#cee7ef"
     stroke="#cee7ef"
     stroke-width="1.04298"
     id="path19" />
  <path
     d="m 8.23584,34.5957 c 2.68176,0 4.85576,-2.174 4.85576,-4.8558 0,-2.6817 -2.174,-4.8557 -4.85576,-4.8557 -2.68173,0 -4.85571,2.174 -4.85571,4.8557 0,2.6818 2.17398,4.8558 4.85571,4.8558 z"
     fill="#4b6269"
     id="path21" />
  <path
     d="M 1.28032,10.0741 H 34.3484 c 0.1548,0 0.2803,-0.16019 0.2803,-0.35777 V 5.9598 c 0,-0.19759 -0.1255,-0.35777 -0.2803,-0.35777 H 1.28032 c -0.15477,0 -0.28024,0.16018 -0.28024,0.35777 v 3.75653 c 0,0.19758 0.12547,0.35777 0.28024,0.35777 z"
     fill="#cee7ef"
     stroke="#4b6269"
     stroke-width="0.304577"
     id="path23" />
  <path
     d="M 33.3081,1 H 20.3783 c -0.1519,0 -0.275,0.12315 -0.275,0.27506 V 14.2048 c 0,0.1519 0.1231,0.2751 0.275,0.2751 h 12.9298 c 0.1519,0 0.275,-0.1232 0.275,-0.2751 V 1.27506 C 33.5831,1.12315 33.46,1 33.3081,1 Z"
     fill="#cee7ef"
     stroke="#cee7ef"
     stroke-width="2"
     stroke-linecap="round"
     id="path25" />
  <path
     d="m 24.9207,14.725 0.011,1.3 0.9225,0.65 0.4613,0.325 h 0.4507 0.4858 l 0.4752,-0.325 0.9505,-0.65 0.0185,-1.3 z"
     fill="#cee7ef"
     stroke="#cee7ef"
     stroke-width="1.04298"
     id="path27" />
  <path
     d="M 27.2461,11.4936 24.0369,8.30949 c -0.1504,-0.1755 -0.2256,-0.37607 -0.2256,-0.60172 0,-0.25071 0.0752,-0.42621 0.2256,-0.57664 l 3.2092,-3.18408 c 0.2256,-0.22564 0.5766,-0.30086 0.8775,-0.1755 0.3008,0.12536 0.5014,0.42622 0.5014,0.72707 v 6.41828 c 0,0.326 -0.2006,0.6017 -0.5014,0.7271 -0.3009,0.1254 -0.6519,0.0752 -0.8775,-0.1504 z"
     fill="#4b6269"
     id="path29" />
  <path
     d="M 14.7004,1 H 1.77067 C 1.61875,1 1.49561,1.12315 1.49561,1.27506 V 14.2048 c 0,0.1519 0.12314,0.2751 0.27506,0.2751 H 14.7004 c 0.1519,0 0.2751,-0.1232 0.2751,-0.2751 V 1.27506 C 14.9755,1.12315 14.8523,1 14.7004,1 Z"
     fill="#cee7ef"
     stroke="#cee7ef"
     stroke-width="2"
     stroke-linecap="round"
     id="path31" />
  <path
     d="m 6.31299,14.725 0.01108,1.3 0.92251,0.65 L 7.70783,17 h 0.4507 0.4858 l 0.47524,-0.325 0.95053,-0.65 0.0184,-1.3 z"
     fill="#cee7ef"
     stroke="#cee7ef"
     stroke-width="1.04298"
     id="path33" />
  <path
     d="m 7.49321,3.89669 3.22199,3.1968 c 0.151,0.1762 0.2517,0.37758 0.2517,0.57895 0,0.1762 -0.1007,0.40275 -0.2517,0.55378 L 7.49321,11.423 C 7.26666,11.6496 6.91426,11.7251 6.6122,11.5992 6.31014,11.4734 6.13394,11.2216 6.13394,10.8944 V 4.45046 c 0,-0.30206 0.1762,-0.60412 0.47826,-0.72997 0.30206,-0.12586 0.65446,-0.05035 0.88101,0.1762 z"
     fill="#4b6269"
     id="path35" />
  <g
     inkscape:groupmode="layer"
     id="layer3"
     inkscape:label="Extruder" />
</svg>
