<?xml version="1.0" encoding="UTF-8" standalone="no"?>
<svg
   xmlns:dc="http://purl.org/dc/elements/1.1/"
   xmlns:cc="http://creativecommons.org/ns#"
   xmlns:rdf="http://www.w3.org/1999/02/22-rdf-syntax-ns#"
   xmlns:svg="http://www.w3.org/2000/svg"
   xmlns="http://www.w3.org/2000/svg"
   xmlns:sodipodi="http://sodipodi.sourceforge.net/DTD/sodipodi-0.dtd"
   xmlns:inkscape="http://www.inkscape.org/namespaces/inkscape"
   width="480"
   height="272"
   viewBox="0 0 127 71.966667"
   version="1.1"
   id="svg13101"
   inkscape:version="1.0.1 (3bc2e813f5, 2020-09-07)"
   sodipodi:docname="load-filament.svg">
  <defs
     id="defs13095" />
  <sodipodi:namedview
     id="base"
     pagecolor="#ffffff"
     bordercolor="#666666"
     borderopacity="1.0"
     inkscape:pageopacity="0.0"
     inkscape:pageshadow="2"
     inkscape:zoom="1.4"
     inkscape:cx="56.690422"
     inkscape:cy="132.41577"
     inkscape:document-units="mm"
     inkscape:current-layer="layer1"
     inkscape:document-rotation="0"
     showgrid="false"
     units="px"
     inkscape:window-width="2560"
     inkscape:window-height="1377"
     inkscape:window-x="1912"
     inkscape:window-y="-8"
     inkscape:window-maximized="1" />
  <metadata
     id="metadata13098">
    <rdf:RDF>
      <cc:Work
         rdf:about="">
        <dc:format>image/svg+xml</dc:format>
        <dc:type
           rdf:resource="http://purl.org/dc/dcmitype/StillImage" />
        <dc:title></dc:title>
      </cc:Work>
    </rdf:RDF>
  </metadata>
  <g
     inkscape:label="Layer 1"
     inkscape:groupmode="layer"
     id="layer1">
    <g
       id="g2369">
      <path
         style="fill:none;stroke:#000000;stroke-width:8;stroke-linecap:butt;stroke-linejoin:miter;stroke-miterlimit:4;stroke-dasharray:none;stroke-opacity:1"
         d="M 64.520533,5.6696429 V 64.633928"
         id="path1527" />
      <path
         d="m 77.010464,17.66741 1.856362,3.170123 c 1.730567,-0.331609 3.507893,-0.342386 5.242353,-0.03179 l 1.817778,-3.1924 c 0.206856,-0.367231 0.639011,-0.534104 1.043003,-0.417042 2.66354,0.812796 5.07671,2.209619 7.089254,4.042011 0.307892,0.281944 0.385421,0.744466 0.178468,1.104195 l -1.817794,3.192381 c 1.158135,1.329753 2.056134,2.862716 2.64871,4.524497 l 3.66665,-0.02223 c 0.418189,-0.0025 0.785875,0.286479 0.877974,0.69667 0.628978,2.736946 0.616118,5.545006 0.04945,8.154777 -0.08711,0.411253 -0.451252,0.70473 -0.869462,0.707265 l -3.674117,0.02228 c -0.579899,1.66142 -1.459237,3.205166 -2.593649,4.556284 l 1.856316,3.162658 c 0.211293,0.364638 0.146879,0.820586 -0.165064,1.106269 -1.982704,1.856624 -4.378764,3.282608 -7.039729,4.127693 -0.402499,0.129408 -0.836654,-0.03979 -1.047967,-0.40437 l -1.856362,-3.170118 c -1.730572,0.33161 -3.507893,0.342386 -5.242359,0.03179 l -1.817767,3.192375 c -0.206856,0.367227 -0.639016,0.534106 -1.042991,0.417047 -2.663546,-0.8128 -5.076721,-2.209623 -7.089261,-4.042022 -0.307891,-0.281939 -0.38542,-0.744469 -0.178467,-1.104186 l 1.817783,-3.192397 c -1.15814,-1.329756 -2.056128,-2.862725 -2.648709,-4.524504 l -3.674135,0.02228 c -0.418201,0.0025 -0.785883,-0.286479 -0.877982,-0.69667 -0.628976,-2.736946 -0.616127,-5.545006 -0.04945,-8.154777 0.08711,-0.411253 0.451253,-0.70473 0.86947,-0.707266 l 3.674134,-0.02228 c 0.579898,-1.661417 1.459231,-3.205157 2.593649,-4.556282 l -1.856362,-3.170128 c -0.211292,-0.36464 -0.146879,-0.820583 0.165065,-1.10627 1.982704,-1.856612 4.378759,-3.282606 7.039725,-4.127686 0.410028,-0.114528 0.844169,0.04708 1.055483,0.411818 z m -1.411173,17.289562 c 0.01997,3.293271 2.71715,5.957938 6.010427,5.93797 3.293278,-0.01997 5.957943,-2.717147 5.937974,-6.010417 -0.01997,-3.293286 -2.717143,-5.957944 -6.010422,-5.937976 -3.293277,0.01997 -5.957948,2.717138 -5.937979,6.010423 z"
         id="path1475"
         style="display:inline;fill:#000000;stroke:#ffffff;stroke-width:0.875;stroke-linejoin:round;stroke-miterlimit:4;stroke-dasharray:none" />
      <path
         d="m 64.524911,30.935997 -3.181322,1.837105 c 0.321111,1.732546 0.321111,3.509905 0,5.242451 l 3.181322,1.837101 c 0.365966,0.209077 0.53022,0.642236 0.410715,1.045506 -0.828934,2.658568 -2.240364,5.063224 -4.084927,7.064627 -0.283801,0.306176 -0.746792,0.3809 -1.105253,0.171769 l -3.181301,-1.837122 c -1.336754,1.150051 -2.875139,2.038738 -4.540476,2.621233 v 3.666729 c 0,0.418209 -0.291243,0.784127 -0.701985,0.873737 -2.740711,0.612369 -5.548636,0.582495 -8.154925,0 -0.410715,-0.0896 -0.701984,-0.455517 -0.701984,-0.873737 V 48.9112 c -1.65787,-0.589972 -3.196256,-1.478649 -4.540471,-2.621233 l -3.173855,1.837106 c -0.365913,0.209078 -0.821462,0.1419 -1.105248,-0.171769 -1.844568,-1.993925 -3.255998,-4.398587 -4.084932,-7.064628 -0.126967,-0.403274 0.04486,-0.836396 0.410715,-1.045495 L 33.1523,38.008075 c -0.32111,-1.732551 -0.32111,-3.509905 0,-5.242455 l -3.181295,-1.83709 c -0.365965,-0.209078 -0.53022,-0.642242 -0.410715,-1.045502 0.828935,-2.658568 2.240365,-5.063229 4.084932,-7.064621 0.283802,-0.306177 0.746792,-0.3809 1.105248,-0.171769 l 3.181316,1.837106 c 1.336754,-1.150056 2.875141,-2.038733 4.540477,-2.621228 v -3.674201 c 0,-0.418209 0.291243,-0.784133 0.701984,-0.873743 2.740712,-0.612369 5.548638,-0.582495 8.154931,0 0.410715,0.08961 0.701979,0.455518 0.701979,0.873743 v 3.674201 c 1.657869,0.589962 3.196255,1.478639 4.540476,2.621228 l 3.181322,-1.837106 c 0.365913,-0.209078 0.821463,-0.141901 1.105248,0.171769 1.844563,1.993925 3.255998,4.398581 4.084927,7.064621 0.112033,0.410716 -0.05224,0.84387 -0.418209,1.052969 z m -17.280692,-1.51598 c -3.293333,0 -5.974303,2.68097 -5.974303,5.974319 0,3.293332 2.68097,5.974297 5.974303,5.974297 3.293344,0 5.974313,-2.680965 5.974313,-5.974297 0,-3.293349 -2.680969,-5.974319 -5.974313,-5.974319 z"
         id="path1464"
         style="display:inline;fill:#000000;stroke-width:0.875;stroke:#ffffff;stroke-miterlimit:4;stroke-dasharray:none;stroke-linejoin:round;font-variation-settings:normal;opacity:1;vector-effect:none;fill-opacity:1;stroke-linecap:butt;stroke-dashoffset:0;stroke-opacity:1;stop-color:#000000;stop-opacity:1" />
    </g>
    <g
       id="g3013"
       transform="matrix(0.67932332,0,0,0.67932332,35.999054,5.0702482)"
       style="display:inline">
      <path
         style="fill:#ffffff;stroke:#ffffff;stroke-width:1.33324;stroke-linecap:round;stroke-linejoin:bevel;stroke-miterlimit:4;stroke-dasharray:none;stroke-opacity:1"
         d="m 49.849757,11.425079 -0.471952,1.814308 -0.508036,2.557812 v 2.456688 2.456688 2.456688"
         id="path1527-4"
         sodipodi:nodetypes="cccccc" />
      <path
         d="m 51.431513,16.057392 0.262015,0.447445 c 0.24426,-0.0468 0.495119,-0.04833 0.739929,-0.0045 l 0.25657,-0.45059 c 0.0292,-0.05183 0.09019,-0.07539 0.147214,-0.05886 0.375944,0.114716 0.71655,0.311875 1.000609,0.570508 0.04346,0.03979 0.0544,0.105077 0.02519,0.155851 l -0.256572,0.450586 c 0.163465,0.187687 0.290212,0.404057 0.37385,0.638607 l 0.517528,-0.0032 c 0.05902,-3.53e-4 0.110925,0.04044 0.123918,0.09833 0.08878,0.386306 0.08697,0.782649 0.0069,1.151003 -0.01233,0.05805 -0.06368,0.09947 -0.122725,0.09983 l -0.518582,0.0032 c -0.08185,0.234501 -0.205963,0.452392 -0.366079,0.643095 l 0.262008,0.446393 c 0.02983,0.05147 0.02074,0.115817 -0.0233,0.156144 -0.279848,0.262052 -0.618038,0.463321 -0.993619,0.5826 -0.05681,0.01827 -0.118084,-0.0056 -0.147914,-0.05707 L 52.456435,20.47932 c -0.24426,0.0468 -0.495119,0.04833 -0.739929,0.0045 l -0.256569,0.450586 c -0.0292,0.05183 -0.09019,0.07539 -0.147212,0.05886 -0.375946,-0.114717 -0.716552,-0.311876 -1.000611,-0.570508 -0.04346,-0.03979 -0.0544,-0.105077 -0.02519,-0.15585 l 0.256571,-0.45059 C 50.380029,19.628631 50.253283,19.41226 50.169643,19.177709 l -0.518583,0.0032 c -0.05903,3.53e-4 -0.110924,-0.04044 -0.123918,-0.09833 -0.08878,-0.386304 -0.08697,-0.782647 -0.0069,-1.151003 0.01233,-0.05805 0.06368,-0.09947 0.122725,-0.09983 l 0.518583,-0.0032 c 0.08185,-0.234498 0.205963,-0.452389 0.36608,-0.643094 l -0.26201,-0.447477 c -0.02983,-0.05147 -0.02074,-0.115817 0.0233,-0.156144 0.279848,-0.262053 0.618039,-0.463323 0.993619,-0.582601 0.05788,-0.01616 0.119145,0.0066 0.148975,0.05813 z m -0.19918,2.440327 c 0.0028,0.464826 0.383511,0.840931 0.84834,0.838113 0.464828,-0.0028 0.840929,-0.383511 0.838112,-0.848338 -0.0028,-0.464829 -0.383511,-0.840931 -0.848339,-0.838113 -0.464828,0.0028 -0.840932,0.383509 -0.838113,0.848338 z"
         id="path1475-1"
         style="display:inline;fill:#ffffff;stroke:none;stroke-width:0.123501;stroke-linejoin:round;stroke-miterlimit:4;stroke-dasharray:none" />
      <path
         d="M 48.244924,18.997346 47.8666,19.215815 c 0.03819,0.206033 0.03819,0.417398 0,0.623431 l 0.378324,0.218468 c 0.04352,0.02487 0.06305,0.07637 0.04885,0.124329 -0.09858,0.316156 -0.266424,0.602118 -0.485779,0.840126 -0.03376,0.03641 -0.08881,0.04529 -0.131436,0.02043 L 47.29824,20.82413 c -0.158968,0.136755 -0.341912,0.242446 -0.539954,0.311716 v 0.436047 c 0,0.04972 -0.03463,0.09325 -0.08348,0.103897 -0.325926,0.07283 -0.659844,0.06926 -0.969785,0 -0.04883,-0.01061 -0.08348,-0.05418 -0.08348,-0.103897 V 21.13496 c -0.197157,-0.07015 -0.380102,-0.175841 -0.539957,-0.311716 l -0.377433,0.218469 c -0.04352,0.02486 -0.09769,0.01688 -0.131436,-0.02043 -0.219356,-0.237118 -0.387203,-0.52308 -0.48578,-0.840126 -0.0151,-0.04796 0.0053,-0.09945 0.04883,-0.124329 l 0.378321,-0.218469 c -0.03819,-0.206033 -0.03819,-0.417398 0,-0.623432 L 44.135771,18.99646 c -0.04352,-0.02485 -0.06306,-0.07637 -0.04883,-0.124329 0.09858,-0.316158 0.266424,-0.602118 0.48578,-0.840125 0.03376,-0.03641 0.08881,-0.04529 0.131435,-0.02043 l 0.378322,0.218468 c 0.158968,-0.136768 0.341912,-0.242445 0.539954,-0.311716 v -0.43694 c 0,-0.04972 0.03463,-0.09325 0.08348,-0.103897 0.325926,-0.07283 0.659844,-0.06927 0.969785,0 0.04885,0.01061 0.08348,0.05418 0.08348,0.103897 v 0.436936 c 0.197153,0.07015 0.380097,0.175839 0.539955,0.311715 l 0.378321,-0.218467 c 0.04352,-0.02485 0.09769,-0.01688 0.131436,0.02043 0.219355,0.237117 0.387203,0.523078 0.485779,0.840124 0.01331,0.04883 -0.0061,0.100357 -0.04973,0.125231 z m -2.055018,-0.18028 c -0.391644,0 -0.710464,0.318821 -0.710464,0.710465 0,0.391643 0.31882,0.710464 0.710464,0.710464 0.391642,0 0.710464,-0.318821 0.710464,-0.710464 0,-0.391644 -0.318822,-0.710465 -0.710464,-0.710465 z"
         id="path1464-1"
         style="font-variation-settings:normal;display:inline;vector-effect:none;fill:#ffffff;fill-opacity:1;stroke:none;stroke-width:0.104055;stroke-linecap:butt;stroke-linejoin:round;stroke-miterlimit:4;stroke-dasharray:none;stroke-dashoffset:0;stroke-opacity:1;stop-color:#000000" />
    </g>
  </g>
</svg>
