<?xml version="1.0" encoding="UTF-8" standalone="no"?>
<svg
   xmlns:dc="http://purl.org/dc/elements/1.1/"
   xmlns:cc="http://creativecommons.org/ns#"
   xmlns:rdf="http://www.w3.org/1999/02/22-rdf-syntax-ns#"
   xmlns:svg="http://www.w3.org/2000/svg"
   xmlns="http://www.w3.org/2000/svg"
   xmlns:sodipodi="http://sodipodi.sourceforge.net/DTD/sodipodi-0.dtd"
   xmlns:inkscape="http://www.inkscape.org/namespaces/inkscape"
   width="440"
   height="272"
   viewBox="0 0 116.41666 71.966669"
   version="1.1"
   id="svg3018"
   inkscape:version="1.0.1 (3bc2e813f5, 2020-09-07)"
   sodipodi:docname="Thermomitor.svg">
  <defs
     id="defs3012" />
  <sodipodi:namedview
     id="base"
     pagecolor="#000000"
     bordercolor="#666666"
     borderopacity="1.0"
     inkscape:pageopacity="0"
     inkscape:pageshadow="2"
     inkscape:zoom="1.6437743"
     inkscape:cx="272.63225"
     inkscape:cy="138.61294"
     inkscape:document-units="px"
     inkscape:current-layer="layer1"
     inkscape:document-rotation="0"
     showgrid="false"
     units="px"
     inkscape:window-width="2560"
     inkscape:window-height="1377"
     inkscape:window-x="1912"
     inkscape:window-y="-8"
     inkscape:window-maximized="1" />
  <metadata
     id="metadata3015">
    <rdf:RDF>
      <cc:Work
         rdf:about="">
        <dc:format>image/svg+xml</dc:format>
        <dc:type
           rdf:resource="http://purl.org/dc/dcmitype/StillImage" />
        <dc:title></dc:title>
      </cc:Work>
    </rdf:RDF>
  </metadata>
  <g
     inkscape:label="Layer 1"
     inkscape:groupmode="layer"
     id="layer1">
    <g
       id="g3660"
       transform="translate(0,-2.51906)">
      <g
         id="g3654">
        <path
           style="display:inline;mix-blend-mode:normal;fill:#ffffff;fill-opacity:1;stroke-width:0.123427"
           d="m 70.057376,43.852593 c 2.457683,2.784889 3.949663,6.442164 3.949663,10.448485 0,8.725812 -7.072751,15.798691 -15.798692,15.798691 -0.03675,0 -0.07519,-1.25e-4 -0.112276,-3.67e-4 -8.67717,-0.06044 -15.730548,-7.203343 -15.686237,-15.880648 0.02036,-3.974111 1.508633,-7.600401 3.94942,-10.366161 V 18.754032 c 0,-6.54399 5.305025,-11.8490153 11.849008,-11.8490153 6.54399,0 11.849029,5.3050253 11.849029,11.8490153 z"
           id="path6489" />
        <path
           style="display:inline;mix-blend-mode:normal;fill:#000000;fill-opacity:1;stroke-width:0.123427"
           d="m 68.082515,54.301078 c 0,-4.238367 -2.390786,-6.441665 -3.94969,-8.208156 v -27.33889 c 0,-3.266749 -2.657762,-5.924507 -5.924505,-5.924507 -3.266748,0 -5.92451,2.657758 -5.92451,5.924507 v 27.33889 c -1.571471,1.780808 -3.928082,3.962016 -3.949531,8.156074 -0.02759,5.415493 4.389434,9.888496 9.802947,9.926019 l 0.07103,2.49e-4 c 5.444621,0 9.874194,-4.429557 9.874194,-9.874186 z"
           id="path6491" />
      </g>
      <path
         style="display:inline;mix-blend-mode:normal;fill:#ff0000;fill-opacity:1;stroke-width:0.123427"
         d="m 66.107672,54.301078 c 0,4.362663 -3.536668,7.899342 -7.89934,7.899342 -4.362651,0 -7.899339,-3.536679 -7.899339,-7.899342 0,-2.923373 1.589242,-5.473873 3.949664,-6.839964 V 42.259179 37.057245 31.85531 26.653376 c 0,-2.18133 1.768357,-3.949671 3.949675,-3.949671 2.181333,0 3.949664,1.768341 3.949664,3.949671 v 5.201935 5.201934 5.201935 5.201934 c 2.360429,1.366091 3.949676,3.916591 3.949676,6.839964 z"
         id="path3516"
         sodipodi:nodetypes="sssccccsssccccs" />
    </g>
  </g>
</svg>
