<?xml version="1.0" encoding="UTF-8" standalone="no"?>
<!-- Created with Inkscape (http://www.inkscape.org/) -->

<svg
   width="13.222171mm"
   height="5.2916665mm"
   viewBox="0 0 13.222171 5.2916665"
   version="1.1"
   id="svg1537"
   inkscape:version="1.1.2 (0a00cf5339, 2022-02-04, custom)"
   sodipodi:docname="extruder.svg"
   xmlns:inkscape="http://www.inkscape.org/namespaces/inkscape"
   xmlns:sodipodi="http://sodipodi.sourceforge.net/DTD/sodipodi-0.dtd"
   xmlns="http://www.w3.org/2000/svg"
   xmlns:svg="http://www.w3.org/2000/svg">
  <sodipodi:namedview
     id="namedview1539"
     pagecolor="#00ff19"
     bordercolor="#666666"
     borderopacity="1.0"
     inkscape:pageshadow="2"
     inkscape:pageopacity="0"
     inkscape:pagecheckerboard="true"
     inkscape:document-units="mm"
     showgrid="false"
     fit-margin-top="0"
     fit-margin-left="0"
     fit-margin-right="0"
     fit-margin-bottom="0"
     inkscape:zoom="5.7299663"
     inkscape:cx="25.218298"
     inkscape:cy="49.913033"
     inkscape:window-width="2560"
     inkscape:window-height="1377"
     inkscape:window-x="-8"
     inkscape:window-y="-8"
     inkscape:window-maximized="1"
     inkscape:current-layer="layer1" />
  <defs
     id="defs1534" />
  <g
     inkscape:label="Layer 1"
     inkscape:groupmode="layer"
     id="layer1"
     transform="translate(-4.620611,-4.3728236)">
    <g
       id="g3050"
       style="display:inline;mix-blend-mode:normal"
       transform="translate(-103.77479,2.9916505)">
      <rect
         style="display:inline;mix-blend-mode:normal;fill:#ffffff;stroke-width:1.41807;stroke-linecap:round;stop-color:#000000"
         id="rect3621"
         width="13.222171"
         height="0.90408009"
         x="108.3954"
         y="2.9633138"
         inkscape:label="Extruder Bar" />
      <g
         id="g2035"
         style="display:inline;mix-blend-mode:normal"
         transform="matrix(0.89205921,0,0,0.89205921,31.03342,-1.661891)">
        <path
           style="display:inline;mix-blend-mode:normal;fill:#ffffff;stroke:none;stroke-width:0.198707;stroke-linecap:butt;stroke-linejoin:miter;stroke-miterlimit:4;stroke-dasharray:none;stroke-opacity:1"
           d="m 90.152713,8.5093953 0.0041,0.4764875 0.338119,0.2382438 0.169059,0.1191218 h 0.165195 0.178054 l 0.17419,-0.1191218 0.348379,-0.2382438 0.0068,-0.4764875 z"
           id="path2027"
           sodipodi:nodetypes="cccccccccc" />
        <rect
           style="display:inline;mix-blend-mode:normal;fill:#ffffff;stroke:none;stroke-width:0.381037;stroke-linecap:round;stroke-miterlimit:4;stroke-dasharray:none;stroke-opacity:1;stop-color:#000000"
           id="rect2029"
           width="4.9406924"
           height="4.9406924"
           x="88.387085"
           y="3.4112804"
           rx="0.11301496"
           ry="0.11301496" />
        <ellipse
           style="display:inline;mix-blend-mode:normal;fill:#000000;stroke:#000000;stroke-width:0.242008;stroke-miterlimit:4;stroke-dasharray:none;stop-color:#000000"
           id="ellipse2031"
           cx="90.857437"
           cy="5.8816266"
           rx="1.7797358"
           ry="1.7797359" />
        <path
           d="M 91.816845,5.7438207 C 91.696345,5.6241861 91.565559,5.5328432 91.431503,5.4707917 L 92.00906,4.9955277 C 92.05816,4.9553417 92.05489,4.8797816 92.00436,4.8407676 91.619874,4.5442262 91.06797,4.5713509 90.71963,4.9222136 90.599992,5.0427146 90.508649,5.1735 90.446597,5.307556 L 89.971333,4.7299988 c -0.04019,-0.049097 -0.115746,-0.045832 -0.15476,0.0047 -0.296541,0.3844866 -0.269417,0.9363899 0.08145,1.2847306 0.120501,0.119634 0.251286,0.2109773 0.385343,0.273029 l -0.577562,0.4752673 c -0.04892,0.040271 -0.04583,0.1157465 0.0047,0.1547605 0.384487,0.2965413 0.93639,0.269417 1.284731,-0.081446 0.119634,-0.1205006 0.210977,-0.2512861 0.273029,-0.3853427 l 0.475264,0.5775578 c 0.04031,0.048967 0.115746,0.045832 0.15476,-0.0047 0.296542,-0.3844863 0.269417,-0.9363898 -0.08145,-1.2847304 z m -1.0957,0.2750803 a 0.19343775,0.19343775 0 1 1 0.27356,-9.907e-4 0.19343775,0.19343775 0 0 1 -0.27356,9.907e-4 z"
           id="path2033"
           style="display:inline;mix-blend-mode:normal;fill:#ffffff;stroke-width:0.00604494" />
      </g>
    </g>
  </g>
</svg>
