<svg xmlns="http://www.w3.org/2000/svg" viewBox="0 0 64 64" fill="#fff" fill-rule="evenodd" stroke="#000" stroke-linecap="round" stroke-linejoin="round"><g transform="translate(1.814 1.814)"><g stroke="none"><path d="M0 19.26v9.63l31.297 31.297h9.63z" fill="#262626"/><path d="M60.186 40.926v-9.63L28.89-.001h-9.63z" fill="#ffea00"/><path d="M9.63 0h9.63l40.927 40.927v9.63z" fill="#262626"/><path d="M50.557 60.186h-9.63L0 19.26V9.63zm9.63 0L0 0h9.63l50.557 50.556z" fill="#ffea00"/><path d="M0 0l60.186 60.186h-9.63L0 9.63z" fill="#262626"/><path d="M31.297 60.186h-9.63L0 38.52v-9.63z" fill="#ffea00"/><path d="M28.9 0h9.63l21.667 21.667v9.63z" fill="#262626"/><path d="M12.037 60.186H0V48.15z" fill="#f5e000"/><path d="M48.15.001h12.037v12.037zM0 38.52v9.63l12.037 12.037h9.63z" fill="#262626"/><path d="M38.52 0h9.63l12.037 12.037v9.63z" fill="#f5e000"/><g fill="url(#C)"><path d="M0 0l1.204 1.204v57.78L0 60.186z" fill-opacity=".3"/><path d="M0 0l1.204 1.204v57.78L0 60.186z" fill-opacity=".3" transform="matrix(0 1 -1 0 60.186 0)"/></g><g fill="#000"><path d="M60.187 0l-1.204 1.204v57.78l1.204 1.204z" fill-opacity=".25"/><path d="M60.186 60.186l-1.204-1.204H1.203L0 60.186z" fill-opacity=".25"/></g></g><g transform="translate(10.186 10.186)"><circle cx="20" cy="20" fill="url(#D)" stroke="none" filter="url(#A)" r="20"/><defs><filter id="A" x="-45%" y="-45.00014162108169%" width="197.5%" height="197.500306845677%"><feGaussianBlur in="SourceAlpha" stdDeviation="7"/><feOffset dx="3" dy="3" result="B"/><feFlood flood-color="#000" flood-opacity="1"/><feComposite in2="B" operator="in" result="C"/><feMerge><feMergeNode in="C"/><feMergeNode in="SourceGraphic"/></feMerge></filter></defs></g><path d="M30.186 10.186a19.96 19.96 0 0 1 20 19.997 19.96 19.96 0 0 1-19.997 20.003 19.96 19.96 0 0 1-20.003-20 19.96 19.96 0 0 1 19.979-20h.02zm-17.333 20c0-9.603 7.73-17.333 17.333-17.333s17.333 7.73 17.333 17.333S39.8 47.518 30.19 47.52s-17.336-7.73-17.336-17.333z" fill="url(#E)" fill-opacity=".15" stroke="none"/><g fill="none"><circle cx="30.186" cy="30.186" stroke="url(#F)" stroke-opacity=".5" r="12"/><circle cx="30.186" cy="30.186" stroke="url(#G)" stroke-opacity=".5" r="11.333"/></g></g><defs><filter x="-50.333333333333336%" y="-50.333333333333336%" width="207.33333333333334%" height="207.33333333333334%" ><feGaussianBlur in="SourceAlpha" stdDeviation="30"/><feOffset dx="10" dy="10" result="B"/><feFlood flood-color="#000" flood-opacity="1"/><feComposite in2="B" operator="in" result="C"/><feMerge><feMergeNode in="C"/><feMergeNode in="SourceGraphic"/></feMerge></filter><linearGradient id="C" x1="0%" y1="0%" x2="100%" y2="100%"><stop offset="0%" stop-color="#fff"/><stop offset="100%" stop-color="#c7c7c7"/></linearGradient><linearGradient id="D" x1="0%" y1="0%" x2="100%" y2="100%"><stop offset="0%" stop-color="#ff261f"/><stop offset="100%" stop-color="#cb1919"/></linearGradient><linearGradient id="E" x1="0%" y1="0%" x2="100%" y2="100%"><stop offset="0%" stop-color="#fff"/><stop offset="100%"/></linearGradient><linearGradient id="F" x1="100%" y1="100%" x2="0%" y2="0%"><stop offset="0%" stop-color="#ec3932"/><stop offset="100%" stop-color="#941212"/></linearGradient><linearGradient id="G" x1="0%" y1="0%" x2="100%" y2="100%"><stop offset="0%" stop-color="#ec3932"/><stop offset="100%" stop-color="#941212"/></linearGradient></defs></svg>