<?xml version="1.0" encoding="UTF-8" standalone="no"?>
<!-- Created with Inkscape (http://www.inkscape.org/) -->

<svg
   width="299.26791mm"
   height="135.22855mm"
   viewBox="0 0 299.26791 135.22855"
   version="1.1"
   id="svg5"
   inkscape:version="1.1.2 (0a00cf5339, 2022-02-04, custom)"
   sodipodi:docname="temperature.svg"
   xmlns:inkscape="http://www.inkscape.org/namespaces/inkscape"
   xmlns:sodipodi="http://sodipodi.sourceforge.net/DTD/sodipodi-0.dtd"
   xmlns="http://www.w3.org/2000/svg"
   xmlns:svg="http://www.w3.org/2000/svg">
  <sodipodi:namedview
     id="namedview7"
     pagecolor="#ffffff"
     bordercolor="#666666"
     borderopacity="1.0"
     inkscape:pageshadow="2"
     inkscape:pageopacity="0"
     inkscape:pagecheckerboard="true"
     inkscape:document-units="mm"
     showgrid="false"
     fit-margin-top="0"
     fit-margin-left="0"
     fit-margin-right="0"
     fit-margin-bottom="0"
     inkscape:zoom="0.71624579"
     inkscape:cx="652.7089"
     inkscape:cy="416.05829"
     inkscape:window-width="2560"
     inkscape:window-height="1377"
     inkscape:window-x="-8"
     inkscape:window-y="-8"
     inkscape:window-maximized="1"
     inkscape:current-layer="layer1" />
  <defs
     id="defs2" />
  <g
     inkscape:label="Layer 1"
     inkscape:groupmode="layer"
     id="layer1"
     transform="translate(-33.933582,-36.926775)">
    <g
       id="g1163">
      <path
         id="path9"
         style="stroke-width:0.999999"
         d="M 144.90039,0 C 83.920393,0 32,50.129999 32,112 V 278.5 C 12.249999,303.24997 0,333.99997 0,368 c 0,79.49998 64.5,143.09961 144,143.09961 79.5,0 144,-63.59963 144,-143.09961 0,-34.00003 -12.2,-64.9 -32,-89.5 V 112 C 256,50.129999 205.88039,0 144.90039,0 Z M 144,64.849609 c 26.5,0 48,21.500002 48,48.000001 v 192.30078 c 19.75,14.75002 32,38.25002 32,63.75 0,43.2 -35.9,79.09961 -80,79.09961 -44.129998,0 -80,-35.8696 -80,-79.09961 0,-25.49998 12.249999,-48.87998 32,-63.75 V 112.84961 c 0,-26.499999 21.5,-48.000001 48,-48.000001 z"
         transform="matrix(0.26458333,0,0,0.26458333,33.933582,36.926775)" />
    </g>
    <path
       d="m 187.80087,122.36073 5e-5,-30.400627 c 0,-2.3151 -1.91823,-4.23333 -4.23333,-4.23333 -2.31511,0 -3.99521,1.91823 -3.99521,4.23333 l -0.23818,30.400627 c -4.92654,1.75287 -8.46667,6.41615 -8.46667,11.94065 0,7.01146 5.68854,12.7 12.7,12.7 7.01146,0 12.7,-5.68854 12.7,-12.7 0,-5.53773 -3.54541,-10.1944 -8.46666,-11.94065 z m 25.4,-11.7475 V 66.560108 c 0,-16.36977 -13.26092,-29.633333 -29.39521,-29.633333 -16.13429,0 -29.87146,13.263563 -29.87146,29.633333 v 44.053122 c -5.22552,6.54844 -8.46667,14.68438 -8.46667,23.68021 0,21.03438 17.06563,37.86188 38.1,37.86188 21.03438,0 38.10001,-16.8275 38.10001,-37.86188 0,-8.99583 -3.22792,-17.17146 -8.46667,-23.68021 z m -29.63334,44.84688 c -11.67606,0 -21.16666,-9.49061 -21.16666,-20.92854 0,-6.74688 3.24114,-12.93284 8.46666,-16.86719 V 66.785004 c 0,-7.011458 5.68854,-12.7 12.7,-12.7 7.01146,0 12.7,5.688542 12.7,12.7 v 50.879376 c 5.22552,3.9026 8.46667,10.12031 8.46667,16.86719 0,11.43 -9.49854,20.92854 -21.16667,20.92854 z"
       id="path749"
       style="stroke-width:0.264583" />
    <path
       d="M 299.33482,122.36073 V 66.560108 c 0,-2.315104 -1.91823,-4.233333 -4.23333,-4.233333 -2.3151,0 -4.23333,1.918229 -4.23333,4.233333 v 55.800622 c -4.92655,1.75287 -8.46667,6.41615 -8.46667,11.94065 0,7.01146 5.68854,12.7 12.7,12.7 7.01146,0 12.7,-5.68854 12.7,-12.7 0,-5.53773 -3.54542,-10.1944 -8.46667,-11.94065 z m 25.4,-11.7475 V 66.560108 c 0,-16.36977 -13.26091,-29.633333 -29.39521,-29.633333 -16.13429,0 -29.87145,13.263563 -29.87145,29.633333 v 44.053122 c -5.22552,6.54844 -8.46667,14.68438 -8.46667,23.68021 0,21.03438 17.06562,37.86188 38.1,37.86188 21.03437,0 38.1,-16.8275 38.1,-37.86188 0,-8.99583 -3.22792,-17.17146 -8.46667,-23.68021 z m -29.63333,44.84688 c -11.67606,0 -21.16667,-9.49061 -21.16667,-20.92854 0,-6.74688 3.24115,-12.93284 8.46667,-16.86719 V 66.785004 c 0,-7.011458 5.68854,-12.7 12.7,-12.7 7.01146,0 12.7,5.688542 12.7,12.7 v 50.879376 c 5.22552,3.9026 8.46667,10.12031 8.46667,16.86719 0,11.43 -9.49855,20.92854 -21.16667,20.92854 z"
       id="path758"
       style="stroke-width:0.264583" />
  </g>
</svg>
